<mxfile host="app.diagrams.net" modified="2023-08-20T05:08:57.391Z" agent="Mozilla/5.0 (Macintosh; Intel Mac OS X 10_15_7) AppleWebKit/537.36 (KHTML, like Gecko) Chrome/116.0.0.0 Safari/537.36" etag="-8sVHev6NqN_RhDOtwZl" version="21.6.8" type="device">
  <diagram name="Page-1" id="jwHn1keely0I3LA4fcL2">
    <mxGraphModel dx="1020" dy="676" grid="1" gridSize="10" guides="1" tooltips="1" connect="1" arrows="1" fold="1" page="1" pageScale="1" pageWidth="827" pageHeight="1169" math="0" shadow="0">
      <root>
        <mxCell id="0" />
        <mxCell id="1" parent="0" />
        <mxCell id="7PMAl1TRIFQD6mpDS7yO-3" style="edgeStyle=orthogonalEdgeStyle;rounded=0;orthogonalLoop=1;jettySize=auto;html=1;" edge="1" parent="1" source="7PMAl1TRIFQD6mpDS7yO-1" target="7PMAl1TRIFQD6mpDS7yO-2">
          <mxGeometry relative="1" as="geometry" />
        </mxCell>
        <mxCell id="7PMAl1TRIFQD6mpDS7yO-1" value="Start" style="ellipse;whiteSpace=wrap;html=1;" vertex="1" parent="1">
          <mxGeometry x="377" y="50" width="74" height="40" as="geometry" />
        </mxCell>
        <mxCell id="7PMAl1TRIFQD6mpDS7yO-18" style="edgeStyle=orthogonalEdgeStyle;rounded=0;orthogonalLoop=1;jettySize=auto;html=1;entryX=0.5;entryY=0;entryDx=0;entryDy=0;" edge="1" parent="1" source="7PMAl1TRIFQD6mpDS7yO-2" target="7PMAl1TRIFQD6mpDS7yO-4">
          <mxGeometry relative="1" as="geometry" />
        </mxCell>
        <mxCell id="7PMAl1TRIFQD6mpDS7yO-2" value="Initialize&lt;br&gt;yellowBalls = 10&lt;br&gt;pinkBalls = 20" style="rounded=1;whiteSpace=wrap;html=1;" vertex="1" parent="1">
          <mxGeometry x="354" y="130" width="120" height="60" as="geometry" />
        </mxCell>
        <mxCell id="7PMAl1TRIFQD6mpDS7yO-17" style="edgeStyle=orthogonalEdgeStyle;rounded=0;orthogonalLoop=1;jettySize=auto;html=1;entryX=0.501;entryY=-0.074;entryDx=0;entryDy=0;entryPerimeter=0;" edge="1" parent="1" source="7PMAl1TRIFQD6mpDS7yO-4" target="7PMAl1TRIFQD6mpDS7yO-5">
          <mxGeometry relative="1" as="geometry" />
        </mxCell>
        <mxCell id="7PMAl1TRIFQD6mpDS7yO-4" value="++Yellow&lt;br&gt;yellowBalls = yellowBalls + 1" style="shape=process;whiteSpace=wrap;html=1;backgroundOutline=1;" vertex="1" parent="1">
          <mxGeometry x="354" y="240" width="120" height="60" as="geometry" />
        </mxCell>
        <mxCell id="7PMAl1TRIFQD6mpDS7yO-16" style="edgeStyle=orthogonalEdgeStyle;rounded=0;orthogonalLoop=1;jettySize=auto;html=1;entryX=0.5;entryY=0;entryDx=0;entryDy=0;" edge="1" parent="1" source="7PMAl1TRIFQD6mpDS7yO-5" target="7PMAl1TRIFQD6mpDS7yO-6">
          <mxGeometry relative="1" as="geometry" />
        </mxCell>
        <mxCell id="7PMAl1TRIFQD6mpDS7yO-5" value="Yellow++&lt;br&gt;yellowBalls = yellowBalls + 1" style="shape=process;whiteSpace=wrap;html=1;backgroundOutline=1;" vertex="1" parent="1">
          <mxGeometry x="354" y="350" width="120" height="60" as="geometry" />
        </mxCell>
        <mxCell id="7PMAl1TRIFQD6mpDS7yO-15" style="edgeStyle=orthogonalEdgeStyle;rounded=0;orthogonalLoop=1;jettySize=auto;html=1;entryX=0.5;entryY=0;entryDx=0;entryDy=0;" edge="1" parent="1" source="7PMAl1TRIFQD6mpDS7yO-6" target="7PMAl1TRIFQD6mpDS7yO-7">
          <mxGeometry relative="1" as="geometry" />
        </mxCell>
        <mxCell id="7PMAl1TRIFQD6mpDS7yO-6" value="--Yellow&lt;br&gt;yellowBalls = yellowBalls - 1" style="shape=process;whiteSpace=wrap;html=1;backgroundOutline=1;" vertex="1" parent="1">
          <mxGeometry x="354" y="460" width="120" height="60" as="geometry" />
        </mxCell>
        <mxCell id="7PMAl1TRIFQD6mpDS7yO-14" style="edgeStyle=orthogonalEdgeStyle;rounded=0;orthogonalLoop=1;jettySize=auto;html=1;entryX=0.5;entryY=0;entryDx=0;entryDy=0;" edge="1" parent="1" source="7PMAl1TRIFQD6mpDS7yO-7" target="7PMAl1TRIFQD6mpDS7yO-9">
          <mxGeometry relative="1" as="geometry" />
        </mxCell>
        <mxCell id="7PMAl1TRIFQD6mpDS7yO-7" value="++Pink&lt;br&gt;pinkBalls = pinkBalls + 1" style="shape=process;whiteSpace=wrap;html=1;backgroundOutline=1;" vertex="1" parent="1">
          <mxGeometry x="354" y="570" width="120" height="60" as="geometry" />
        </mxCell>
        <mxCell id="7PMAl1TRIFQD6mpDS7yO-13" style="edgeStyle=orthogonalEdgeStyle;rounded=0;orthogonalLoop=1;jettySize=auto;html=1;entryX=0.5;entryY=0;entryDx=0;entryDy=0;" edge="1" parent="1" source="7PMAl1TRIFQD6mpDS7yO-9" target="7PMAl1TRIFQD6mpDS7yO-10">
          <mxGeometry relative="1" as="geometry" />
        </mxCell>
        <mxCell id="7PMAl1TRIFQD6mpDS7yO-9" value="--Pink&lt;br&gt;pinkBalls = pinkBalls - 1" style="shape=process;whiteSpace=wrap;html=1;backgroundOutline=1;" vertex="1" parent="1">
          <mxGeometry x="354" y="680" width="120" height="60" as="geometry" />
        </mxCell>
        <mxCell id="7PMAl1TRIFQD6mpDS7yO-12" style="edgeStyle=orthogonalEdgeStyle;rounded=0;orthogonalLoop=1;jettySize=auto;html=1;entryX=0.5;entryY=0;entryDx=0;entryDy=0;" edge="1" parent="1" source="7PMAl1TRIFQD6mpDS7yO-10" target="7PMAl1TRIFQD6mpDS7yO-11">
          <mxGeometry relative="1" as="geometry" />
        </mxCell>
        <mxCell id="7PMAl1TRIFQD6mpDS7yO-10" value="--Pink&lt;br&gt;pinkBalls = pinkBalls - 1" style="shape=process;whiteSpace=wrap;html=1;backgroundOutline=1;" vertex="1" parent="1">
          <mxGeometry x="354" y="790" width="120" height="60" as="geometry" />
        </mxCell>
        <mxCell id="7PMAl1TRIFQD6mpDS7yO-11" value="Display&lt;br&gt;Final counts of yellowBalls and pinkBalls" style="shape=parallelogram;perimeter=parallelogramPerimeter;whiteSpace=wrap;html=1;fixedSize=1;" vertex="1" parent="1">
          <mxGeometry x="354" y="900" width="120" height="60" as="geometry" />
        </mxCell>
        <mxCell id="7PMAl1TRIFQD6mpDS7yO-19" value="Stop" style="ellipse;whiteSpace=wrap;html=1;" vertex="1" parent="1">
          <mxGeometry x="377" y="1000" width="74" height="40" as="geometry" />
        </mxCell>
      </root>
    </mxGraphModel>
  </diagram>
</mxfile>
